<svg width="24" height="24" viewBox="0 0 24 24" fill="none" xmlns="http://www.w3.org/2000/svg">
<g clip-path="url(#clip0_57_99)">
<path d="M15 6.75C15.4142 6.75 15.75 6.41421 15.75 6C15.75 5.58579 15.4142 5.25 15 5.25C14.5858 5.25 14.25 5.58579 14.25 6C14.25 6.41421 14.5858 6.75 15 6.75Z" fill="#CECECF"/>
<path d="M17.25 6.75C17.6642 6.75 18 6.41421 18 6C18 5.58579 17.6642 5.25 17.25 5.25C16.8358 5.25 16.5 5.58579 16.5 6C16.5 6.41421 16.8358 6.75 17.25 6.75Z" fill="#CECECF"/>
<path d="M19.5 6.75C19.9142 6.75 20.25 6.41421 20.25 6C20.25 5.58579 19.9142 5.25 19.5 5.25C19.0858 5.25 18.75 5.58579 18.75 6C18.75 6.41421 19.0858 6.75 19.5 6.75Z" fill="#CECECF"/>
<path d="M21 3H3C2.60232 3.00046 2.22105 3.15864 1.93984 3.43984C1.65864 3.72105 1.50046 4.10232 1.5 4.5V19.5C1.50046 19.8977 1.65864 20.2789 1.93984 20.5602C2.22105 20.8414 2.60232 20.9995 3 21H21C21.3977 20.9995 21.7789 20.8414 22.0602 20.5602C22.3414 20.2789 22.4995 19.8977 22.5 19.5V4.5C22.4995 4.10232 22.3414 3.72105 22.0602 3.43984C21.7789 3.15864 21.3977 3.00046 21 3ZM21 4.5V7.5H3V4.5H21ZM3 9H7.5V19.5H3V9ZM9 19.5V9H21V19.5H9Z" fill="#CECECF"/>
</g>
<defs>
<clipPath id="clip0_57_99">
<rect width="24" height="24" fill="white"/>
</clipPath>
</defs>
</svg>
