<svg width="24" height="24" viewBox="0 0 24 24" fill="none" xmlns="http://www.w3.org/2000/svg">
<path d="M21 21H3C2.40326 21 1.83097 20.7629 1.40901 20.341C0.987053 19.919 0.75 19.3467 0.75 18.75V5.25C0.75 4.65326 0.987053 4.08097 1.40901 3.65901C1.83097 3.23705 2.40326 3 3 3H9C9.11018 2.99982 9.21905 3.02392 9.31886 3.07059C9.41868 3.11725 9.50698 3.18534 9.5775 3.27L11.85 6H21C21.5967 6 22.169 6.23705 22.591 6.65901C23.0129 7.08097 23.25 7.65326 23.25 8.25V18.75C23.25 19.3467 23.0129 19.919 22.591 20.341C22.169 20.7629 21.5967 21 21 21ZM3 4.5C2.80109 4.5 2.61032 4.57902 2.46967 4.71967C2.32902 4.86032 2.25 5.05109 2.25 5.25V18.75C2.25 18.9489 2.32902 19.1397 2.46967 19.2803C2.61032 19.421 2.80109 19.5 3 19.5H21C21.1989 19.5 21.3897 19.421 21.5303 19.2803C21.671 19.1397 21.75 18.9489 21.75 18.75V8.25C21.75 8.05109 21.671 7.86032 21.5303 7.71967C21.3897 7.57902 21.1989 7.5 21 7.5H11.4975C11.3886 7.49909 11.2812 7.47446 11.1827 7.42783C11.0843 7.3812 10.9972 7.3137 10.9275 7.23L8.6475 4.5H3Z" fill="#A0A0A2"/>
<path d="M4.79999 10.4H19.2" stroke="#A0A0A2" stroke-width="2" stroke-linecap="round"/>
<path d="M4.79999 15.2H16.05" stroke="#A0A0A2" stroke-width="2" stroke-linecap="round"/>
</svg>
