<svg width="24" height="24" viewBox="0 0 24 24" fill="none" xmlns="http://www.w3.org/2000/svg">
<path d="M21 18H3C2.40326 18 1.83097 17.7629 1.40901 17.341C0.987053 16.919 0.75 16.3467 0.75 15.75V3.75C0.75 3.15326 0.987053 2.58097 1.40901 2.15901C1.83097 1.73705 2.40326 1.5 3 1.5H21C21.5967 1.5 22.169 1.73705 22.591 2.15901C23.0129 2.58097 23.25 3.15326 23.25 3.75V15.75C23.25 16.3467 23.0129 16.919 22.591 17.341C22.169 17.7629 21.5967 18 21 18ZM3 3C2.80109 3 2.61032 3.07902 2.46967 3.21967C2.32902 3.36032 2.25 3.55109 2.25 3.75V15.75C2.25 15.9489 2.32902 16.1397 2.46967 16.2803C2.61032 16.421 2.80109 16.5 3 16.5H21C21.1989 16.5 21.3897 16.421 21.5303 16.2803C21.671 16.1397 21.75 15.9489 21.75 15.75V3.75C21.75 3.55109 21.671 3.36032 21.5303 3.21967C21.3897 3.07902 21.1989 3 21 3H3Z" fill="#201F21"/>
<path d="M15.75 22.5001H8.25003C8.14057 22.5015 8.03214 22.4789 7.93233 22.434C7.83253 22.389 7.74377 22.3227 7.6723 22.2398C7.60083 22.1569 7.54837 22.0594 7.51861 21.954C7.48885 21.8487 7.48251 21.7381 7.50003 21.6301L8.25003 17.1301C8.27878 16.9526 8.37032 16.7914 8.50798 16.6757C8.64564 16.5601 8.82026 16.4977 9.00003 16.5001H15C15.1798 16.4977 15.3544 16.5601 15.4921 16.6757C15.6297 16.7914 15.7213 16.9526 15.75 17.1301L16.5 21.6301C16.5176 21.7381 16.5112 21.8487 16.4815 21.954C16.4517 22.0594 16.3992 22.1569 16.3278 22.2398C16.2563 22.3227 16.1675 22.389 16.0677 22.434C15.9679 22.4789 15.8595 22.5015 15.75 22.5001ZM9.13503 21.0001H14.865L14.3625 18.0001H9.63753L9.13503 21.0001Z" fill="#201F21"/>
<path d="M18 22.5H6C5.80109 22.5 5.61032 22.421 5.46967 22.2803C5.32902 22.1397 5.25 21.9489 5.25 21.75C5.25 21.5511 5.32902 21.3603 5.46967 21.2197C5.61032 21.079 5.80109 21 6 21H18C18.1989 21 18.3897 21.079 18.5303 21.2197C18.671 21.3603 18.75 21.5511 18.75 21.75C18.75 21.9489 18.671 22.1397 18.5303 22.2803C18.3897 22.421 18.1989 22.5 18 22.5Z" fill="#201F21"/>
<path d="M22.5 14.25H1.5C1.30109 14.25 1.11032 14.171 0.96967 14.0303C0.829018 13.8897 0.75 13.6989 0.75 13.5C0.75 13.3011 0.829018 13.1103 0.96967 12.9697C1.11032 12.829 1.30109 12.75 1.5 12.75H22.5C22.6989 12.75 22.8897 12.829 23.0303 12.9697C23.171 13.1103 23.25 13.3011 23.25 13.5C23.25 13.6989 23.171 13.8897 23.0303 14.0303C22.8897 14.171 22.6989 14.25 22.5 14.25Z" fill="#201F21"/>
</svg>
